<mxfile host="app.diagrams.net" agent="Mozilla/5.0 (Windows NT 10.0; Win64; x64) AppleWebKit/537.36 (KHTML, like Gecko) Chrome/131.0.0.0 Safari/537.36" version="25.0.3">
  <diagram name="Page-1" id="xAVxTOM1pZLddolDvF6W">
    <mxGraphModel dx="2390" dy="1230" grid="1" gridSize="10" guides="1" tooltips="1" connect="1" arrows="1" fold="1" page="1" pageScale="1" pageWidth="827" pageHeight="1169" math="0" shadow="0">
      <root>
        <mxCell id="0" />
        <mxCell id="1" parent="0" />
        <mxCell id="nDX_oUPKTSLvAwj0DpQT-22" style="edgeStyle=orthogonalEdgeStyle;rounded=0;orthogonalLoop=1;jettySize=auto;html=1;entryX=0;entryY=0.5;entryDx=0;entryDy=0;" edge="1" parent="1" target="nDX_oUPKTSLvAwj0DpQT-21">
          <mxGeometry relative="1" as="geometry">
            <mxPoint x="70" y="160.0344827586207" as="sourcePoint" />
            <mxPoint x="340" y="80" as="targetPoint" />
            <Array as="points">
              <mxPoint x="205" y="160" />
              <mxPoint x="205" y="80" />
            </Array>
          </mxGeometry>
        </mxCell>
        <mxCell id="nDX_oUPKTSLvAwj0DpQT-31" style="edgeStyle=orthogonalEdgeStyle;rounded=0;orthogonalLoop=1;jettySize=auto;html=1;exitX=0.5;exitY=0.5;exitDx=0;exitDy=0;exitPerimeter=0;" edge="1" parent="1" source="nDX_oUPKTSLvAwj0DpQT-13" target="nDX_oUPKTSLvAwj0DpQT-29">
          <mxGeometry relative="1" as="geometry">
            <Array as="points">
              <mxPoint x="75" y="280" />
            </Array>
          </mxGeometry>
        </mxCell>
        <mxCell id="nDX_oUPKTSLvAwj0DpQT-41" style="edgeStyle=orthogonalEdgeStyle;rounded=0;orthogonalLoop=1;jettySize=auto;html=1;exitX=0.5;exitY=0.5;exitDx=0;exitDy=0;exitPerimeter=0;entryX=0;entryY=0.5;entryDx=0;entryDy=0;" edge="1" parent="1" source="nDX_oUPKTSLvAwj0DpQT-13" target="nDX_oUPKTSLvAwj0DpQT-40">
          <mxGeometry relative="1" as="geometry" />
        </mxCell>
        <mxCell id="nDX_oUPKTSLvAwj0DpQT-13" value="Force de l&#39;ordre" style="shape=umlActor;verticalLabelPosition=bottom;verticalAlign=top;html=1;outlineConnect=0;" vertex="1" parent="1">
          <mxGeometry x="60" y="130" width="30" height="60" as="geometry" />
        </mxCell>
        <mxCell id="nDX_oUPKTSLvAwj0DpQT-48" style="edgeStyle=orthogonalEdgeStyle;rounded=0;orthogonalLoop=1;jettySize=auto;html=1;exitX=0.5;exitY=0.5;exitDx=0;exitDy=0;exitPerimeter=0;entryX=0;entryY=0.5;entryDx=0;entryDy=0;" edge="1" parent="1" source="nDX_oUPKTSLvAwj0DpQT-14" target="nDX_oUPKTSLvAwj0DpQT-44">
          <mxGeometry relative="1" as="geometry">
            <Array as="points">
              <mxPoint x="270" y="520" />
              <mxPoint x="270" y="480" />
            </Array>
          </mxGeometry>
        </mxCell>
        <mxCell id="nDX_oUPKTSLvAwj0DpQT-65" style="edgeStyle=orthogonalEdgeStyle;rounded=0;orthogonalLoop=1;jettySize=auto;html=1;entryX=0;entryY=0.5;entryDx=0;entryDy=0;" edge="1" parent="1" source="nDX_oUPKTSLvAwj0DpQT-14" target="nDX_oUPKTSLvAwj0DpQT-64">
          <mxGeometry relative="1" as="geometry">
            <Array as="points">
              <mxPoint x="170" y="520" />
              <mxPoint x="170" y="680" />
            </Array>
          </mxGeometry>
        </mxCell>
        <mxCell id="nDX_oUPKTSLvAwj0DpQT-67" style="edgeStyle=orthogonalEdgeStyle;rounded=0;orthogonalLoop=1;jettySize=auto;html=1;exitX=0.5;exitY=0.5;exitDx=0;exitDy=0;exitPerimeter=0;entryX=0;entryY=0.5;entryDx=0;entryDy=0;" edge="1" parent="1" source="nDX_oUPKTSLvAwj0DpQT-14" target="nDX_oUPKTSLvAwj0DpQT-66">
          <mxGeometry relative="1" as="geometry">
            <Array as="points">
              <mxPoint x="200" y="520" />
              <mxPoint x="200" y="780" />
            </Array>
          </mxGeometry>
        </mxCell>
        <mxCell id="nDX_oUPKTSLvAwj0DpQT-14" value="Magistrat" style="shape=umlActor;verticalLabelPosition=bottom;verticalAlign=top;html=1;outlineConnect=0;" vertex="1" parent="1">
          <mxGeometry x="60" y="490" width="30" height="60" as="geometry" />
        </mxCell>
        <mxCell id="nDX_oUPKTSLvAwj0DpQT-74" style="edgeStyle=orthogonalEdgeStyle;rounded=0;orthogonalLoop=1;jettySize=auto;html=1;exitX=0.5;exitY=0.5;exitDx=0;exitDy=0;exitPerimeter=0;entryX=0;entryY=0.5;entryDx=0;entryDy=0;" edge="1" parent="1" source="nDX_oUPKTSLvAwj0DpQT-15" target="nDX_oUPKTSLvAwj0DpQT-69">
          <mxGeometry relative="1" as="geometry" />
        </mxCell>
        <mxCell id="nDX_oUPKTSLvAwj0DpQT-78" style="edgeStyle=orthogonalEdgeStyle;rounded=0;orthogonalLoop=1;jettySize=auto;html=1;exitX=0.5;exitY=0.5;exitDx=0;exitDy=0;exitPerimeter=0;entryX=0;entryY=0.5;entryDx=0;entryDy=0;" edge="1" parent="1" source="nDX_oUPKTSLvAwj0DpQT-15" target="nDX_oUPKTSLvAwj0DpQT-77">
          <mxGeometry relative="1" as="geometry">
            <Array as="points">
              <mxPoint x="200" y="890" />
              <mxPoint x="200" y="1050" />
            </Array>
          </mxGeometry>
        </mxCell>
        <mxCell id="nDX_oUPKTSLvAwj0DpQT-15" value="Admin pénitentiaire&amp;nbsp;" style="shape=umlActor;verticalLabelPosition=bottom;verticalAlign=top;html=1;outlineConnect=0;" vertex="1" parent="1">
          <mxGeometry x="60" y="860" width="30" height="60" as="geometry" />
        </mxCell>
        <mxCell id="nDX_oUPKTSLvAwj0DpQT-26" style="edgeStyle=orthogonalEdgeStyle;rounded=0;orthogonalLoop=1;jettySize=auto;html=1;entryX=1;entryY=0.75;entryDx=0;entryDy=0;" edge="1" parent="1" source="nDX_oUPKTSLvAwj0DpQT-16" target="nDX_oUPKTSLvAwj0DpQT-21">
          <mxGeometry relative="1" as="geometry">
            <Array as="points">
              <mxPoint x="640" y="830" />
              <mxPoint x="640" y="95" />
            </Array>
          </mxGeometry>
        </mxCell>
        <mxCell id="nDX_oUPKTSLvAwj0DpQT-16" value="Citoyen" style="shape=umlActor;verticalLabelPosition=bottom;verticalAlign=top;html=1;outlineConnect=0;" vertex="1" parent="1">
          <mxGeometry x="700" y="800" width="30" height="60" as="geometry" />
        </mxCell>
        <mxCell id="nDX_oUPKTSLvAwj0DpQT-24" style="edgeStyle=orthogonalEdgeStyle;rounded=0;orthogonalLoop=1;jettySize=auto;html=1;entryX=1;entryY=0.5;entryDx=0;entryDy=0;" edge="1" parent="1" source="nDX_oUPKTSLvAwj0DpQT-17" target="nDX_oUPKTSLvAwj0DpQT-21">
          <mxGeometry relative="1" as="geometry">
            <Array as="points">
              <mxPoint x="660" y="290" />
              <mxPoint x="660" y="80" />
            </Array>
          </mxGeometry>
        </mxCell>
        <mxCell id="nDX_oUPKTSLvAwj0DpQT-17" value="Actor" style="shape=umlActor;verticalLabelPosition=bottom;verticalAlign=top;html=1;outlineConnect=0;" vertex="1" parent="1">
          <mxGeometry x="700" y="260" width="30" height="60" as="geometry" />
        </mxCell>
        <mxCell id="nDX_oUPKTSLvAwj0DpQT-21" value="Se connecter" style="rounded=1;whiteSpace=wrap;html=1;" vertex="1" parent="1">
          <mxGeometry x="370" y="50" width="150" height="60" as="geometry" />
        </mxCell>
        <mxCell id="nDX_oUPKTSLvAwj0DpQT-23" style="edgeStyle=orthogonalEdgeStyle;rounded=0;orthogonalLoop=1;jettySize=auto;html=1;entryX=0;entryY=0.833;entryDx=0;entryDy=0;entryPerimeter=0;" edge="1" parent="1" source="nDX_oUPKTSLvAwj0DpQT-14" target="nDX_oUPKTSLvAwj0DpQT-21">
          <mxGeometry relative="1" as="geometry">
            <Array as="points">
              <mxPoint x="250" y="520" />
              <mxPoint x="250" y="100" />
            </Array>
          </mxGeometry>
        </mxCell>
        <mxCell id="nDX_oUPKTSLvAwj0DpQT-25" style="edgeStyle=orthogonalEdgeStyle;rounded=0;orthogonalLoop=1;jettySize=auto;html=1;entryX=0;entryY=0.667;entryDx=0;entryDy=0;entryPerimeter=0;" edge="1" parent="1" source="nDX_oUPKTSLvAwj0DpQT-15" target="nDX_oUPKTSLvAwj0DpQT-21">
          <mxGeometry relative="1" as="geometry">
            <Array as="points">
              <mxPoint x="160" y="890" />
              <mxPoint x="160" y="90" />
            </Array>
          </mxGeometry>
        </mxCell>
        <mxCell id="nDX_oUPKTSLvAwj0DpQT-29" value="enregistrer plainte" style="rounded=1;whiteSpace=wrap;html=1;" vertex="1" parent="1">
          <mxGeometry x="370" y="250" width="150" height="60" as="geometry" />
        </mxCell>
        <mxCell id="nDX_oUPKTSLvAwj0DpQT-36" style="edgeStyle=orthogonalEdgeStyle;rounded=0;orthogonalLoop=1;jettySize=auto;html=1;exitX=1;exitY=0.5;exitDx=0;exitDy=0;entryX=1.007;entryY=0.672;entryDx=0;entryDy=0;entryPerimeter=0;dashed=1;" edge="1" parent="1" source="nDX_oUPKTSLvAwj0DpQT-29" target="nDX_oUPKTSLvAwj0DpQT-51">
          <mxGeometry relative="1" as="geometry">
            <Array as="points">
              <mxPoint x="520" y="260" />
              <mxPoint x="570" y="260" />
              <mxPoint x="570" y="189" />
              <mxPoint x="511" y="189" />
            </Array>
          </mxGeometry>
        </mxCell>
        <mxCell id="nDX_oUPKTSLvAwj0DpQT-37" value="include" style="text;html=1;align=center;verticalAlign=middle;resizable=0;points=[];autosize=1;strokeColor=none;fillColor=none;" vertex="1" parent="1">
          <mxGeometry x="540" y="210" width="60" height="30" as="geometry" />
        </mxCell>
        <mxCell id="nDX_oUPKTSLvAwj0DpQT-42" style="edgeStyle=orthogonalEdgeStyle;rounded=0;orthogonalLoop=1;jettySize=auto;html=1;entryX=1;entryY=0.5;entryDx=0;entryDy=0;dashed=1;" edge="1" parent="1" source="nDX_oUPKTSLvAwj0DpQT-40" target="nDX_oUPKTSLvAwj0DpQT-29">
          <mxGeometry relative="1" as="geometry">
            <Array as="points">
              <mxPoint x="600" y="370" />
              <mxPoint x="600" y="270" />
              <mxPoint x="520" y="270" />
            </Array>
          </mxGeometry>
        </mxCell>
        <mxCell id="nDX_oUPKTSLvAwj0DpQT-40" value="Gérer enquête" style="rounded=1;whiteSpace=wrap;html=1;" vertex="1" parent="1">
          <mxGeometry x="370" y="340" width="150" height="60" as="geometry" />
        </mxCell>
        <mxCell id="nDX_oUPKTSLvAwj0DpQT-43" value="include" style="text;html=1;align=center;verticalAlign=middle;resizable=0;points=[];autosize=1;strokeColor=none;fillColor=none;" vertex="1" parent="1">
          <mxGeometry x="540" y="310" width="60" height="30" as="geometry" />
        </mxCell>
        <mxCell id="nDX_oUPKTSLvAwj0DpQT-49" style="edgeStyle=orthogonalEdgeStyle;rounded=0;orthogonalLoop=1;jettySize=auto;html=1;entryX=1;entryY=0.25;entryDx=0;entryDy=0;dashed=1;" edge="1" parent="1" source="nDX_oUPKTSLvAwj0DpQT-44" target="nDX_oUPKTSLvAwj0DpQT-29">
          <mxGeometry relative="1" as="geometry">
            <Array as="points">
              <mxPoint x="570" y="430" />
              <mxPoint x="570" y="280" />
              <mxPoint x="520" y="280" />
            </Array>
          </mxGeometry>
        </mxCell>
        <mxCell id="nDX_oUPKTSLvAwj0DpQT-44" value="Transmettre un dossier" style="rounded=1;whiteSpace=wrap;html=1;" vertex="1" parent="1">
          <mxGeometry x="370" y="450" width="150" height="60" as="geometry" />
        </mxCell>
        <mxCell id="nDX_oUPKTSLvAwj0DpQT-50" value="include" style="text;html=1;align=center;verticalAlign=middle;resizable=0;points=[];autosize=1;strokeColor=none;fillColor=none;" vertex="1" parent="1">
          <mxGeometry x="540" y="380" width="60" height="30" as="geometry" />
        </mxCell>
        <mxCell id="nDX_oUPKTSLvAwj0DpQT-53" style="edgeStyle=orthogonalEdgeStyle;rounded=0;orthogonalLoop=1;jettySize=auto;html=1;entryX=1;entryY=0.5;entryDx=0;entryDy=0;dashed=1;" edge="1" parent="1" source="nDX_oUPKTSLvAwj0DpQT-51" target="nDX_oUPKTSLvAwj0DpQT-21">
          <mxGeometry relative="1" as="geometry">
            <Array as="points">
              <mxPoint x="530" y="180" />
              <mxPoint x="530" y="80" />
            </Array>
          </mxGeometry>
        </mxCell>
        <mxCell id="nDX_oUPKTSLvAwj0DpQT-51" value="Déposer plainte" style="rounded=1;whiteSpace=wrap;html=1;" vertex="1" parent="1">
          <mxGeometry x="370" y="150" width="150" height="60" as="geometry" />
        </mxCell>
        <mxCell id="nDX_oUPKTSLvAwj0DpQT-54" value="include" style="text;html=1;align=center;verticalAlign=middle;resizable=0;points=[];autosize=1;strokeColor=none;fillColor=none;" vertex="1" parent="1">
          <mxGeometry x="500" y="120" width="60" height="30" as="geometry" />
        </mxCell>
        <mxCell id="nDX_oUPKTSLvAwj0DpQT-59" style="edgeStyle=orthogonalEdgeStyle;rounded=0;orthogonalLoop=1;jettySize=auto;html=1;exitX=0.5;exitY=0.5;exitDx=0;exitDy=0;exitPerimeter=0;entryX=1;entryY=0.373;entryDx=0;entryDy=0;entryPerimeter=0;" edge="1" parent="1" source="nDX_oUPKTSLvAwj0DpQT-16" target="nDX_oUPKTSLvAwj0DpQT-51">
          <mxGeometry relative="1" as="geometry" />
        </mxCell>
        <mxCell id="nDX_oUPKTSLvAwj0DpQT-61" style="edgeStyle=orthogonalEdgeStyle;rounded=0;orthogonalLoop=1;jettySize=auto;html=1;entryX=1;entryY=0.5;entryDx=0;entryDy=0;dashed=1;" edge="1" parent="1" source="nDX_oUPKTSLvAwj0DpQT-60" target="nDX_oUPKTSLvAwj0DpQT-44">
          <mxGeometry relative="1" as="geometry" />
        </mxCell>
        <mxCell id="nDX_oUPKTSLvAwj0DpQT-60" value="validation de dossier" style="rounded=1;whiteSpace=wrap;html=1;" vertex="1" parent="1">
          <mxGeometry x="370" y="555" width="150" height="60" as="geometry" />
        </mxCell>
        <mxCell id="nDX_oUPKTSLvAwj0DpQT-62" value="include" style="text;html=1;align=center;verticalAlign=middle;resizable=0;points=[];autosize=1;strokeColor=none;fillColor=none;" vertex="1" parent="1">
          <mxGeometry x="520" y="505" width="60" height="30" as="geometry" />
        </mxCell>
        <mxCell id="nDX_oUPKTSLvAwj0DpQT-64" value="Gestion des audiences&amp;nbsp;" style="rounded=1;whiteSpace=wrap;html=1;" vertex="1" parent="1">
          <mxGeometry x="370" y="650" width="150" height="60" as="geometry" />
        </mxCell>
        <mxCell id="nDX_oUPKTSLvAwj0DpQT-79" style="edgeStyle=orthogonalEdgeStyle;rounded=0;orthogonalLoop=1;jettySize=auto;html=1;exitX=1;exitY=0.5;exitDx=0;exitDy=0;entryX=1;entryY=0.5;entryDx=0;entryDy=0;dashed=1;" edge="1" parent="1" source="nDX_oUPKTSLvAwj0DpQT-66" target="nDX_oUPKTSLvAwj0DpQT-21">
          <mxGeometry relative="1" as="geometry">
            <Array as="points">
              <mxPoint x="590" y="780" />
              <mxPoint x="590" y="80" />
            </Array>
          </mxGeometry>
        </mxCell>
        <mxCell id="nDX_oUPKTSLvAwj0DpQT-66" value="Emettre ordonnances" style="rounded=1;whiteSpace=wrap;html=1;" vertex="1" parent="1">
          <mxGeometry x="370" y="750" width="150" height="60" as="geometry" />
        </mxCell>
        <mxCell id="nDX_oUPKTSLvAwj0DpQT-68" style="edgeStyle=orthogonalEdgeStyle;rounded=0;orthogonalLoop=1;jettySize=auto;html=1;exitX=0.5;exitY=0.5;exitDx=0;exitDy=0;exitPerimeter=0;entryX=-0.007;entryY=0.623;entryDx=0;entryDy=0;entryPerimeter=0;" edge="1" parent="1" source="nDX_oUPKTSLvAwj0DpQT-14" target="nDX_oUPKTSLvAwj0DpQT-60">
          <mxGeometry relative="1" as="geometry">
            <Array as="points">
              <mxPoint x="140" y="520" />
              <mxPoint x="140" y="592" />
            </Array>
          </mxGeometry>
        </mxCell>
        <mxCell id="nDX_oUPKTSLvAwj0DpQT-69" value="enregistrer détenue&amp;nbsp;" style="rounded=1;whiteSpace=wrap;html=1;" vertex="1" parent="1">
          <mxGeometry x="370" y="840" width="150" height="60" as="geometry" />
        </mxCell>
        <mxCell id="nDX_oUPKTSLvAwj0DpQT-75" value="Suivre condition de détention&amp;nbsp;" style="rounded=1;whiteSpace=wrap;html=1;" vertex="1" parent="1">
          <mxGeometry x="370" y="930" width="150" height="60" as="geometry" />
        </mxCell>
        <mxCell id="nDX_oUPKTSLvAwj0DpQT-76" style="edgeStyle=orthogonalEdgeStyle;rounded=0;orthogonalLoop=1;jettySize=auto;html=1;exitX=0.5;exitY=0.5;exitDx=0;exitDy=0;exitPerimeter=0;entryX=0;entryY=0.667;entryDx=0;entryDy=0;entryPerimeter=0;" edge="1" parent="1" source="nDX_oUPKTSLvAwj0DpQT-15" target="nDX_oUPKTSLvAwj0DpQT-75">
          <mxGeometry relative="1" as="geometry" />
        </mxCell>
        <mxCell id="nDX_oUPKTSLvAwj0DpQT-77" value="Organiser libération&amp;nbsp;" style="rounded=1;whiteSpace=wrap;html=1;" vertex="1" parent="1">
          <mxGeometry x="370" y="1020" width="150" height="60" as="geometry" />
        </mxCell>
        <mxCell id="nDX_oUPKTSLvAwj0DpQT-80" value="include" style="text;html=1;align=center;verticalAlign=middle;resizable=0;points=[];autosize=1;strokeColor=none;fillColor=none;" vertex="1" parent="1">
          <mxGeometry x="550" y="600" width="60" height="30" as="geometry" />
        </mxCell>
      </root>
    </mxGraphModel>
  </diagram>
</mxfile>
